<?xml version="1.0" standalone="no"?>
<!DOCTYPE svg PUBLIC "-//W3C//DTD SVG 20010904//EN"
 "http://www.w3.org/TR/2001/REC-SVG-20010904/DTD/svg10.dtd">
<svg version="1.0" xmlns="http://www.w3.org/2000/svg"
 width="597.000000pt" height="597.000000pt" viewBox="0 0 597.000000 597.000000"
 preserveAspectRatio="xMidYMid meet">
<metadata>
Created by potrace 1.14, written by Peter Selinger 2001-2017
</metadata>
<g transform="translate(0.000000,597.000000) scale(0.100000,-0.100000)"
fill="#000000" stroke="none">
<path d="M2210 5499 c-13 -5 -39 -26 -56 -45 -27 -29 -38 -34 -76 -34 -24 0
-77 9 -117 20 -41 12 -93 20 -115 18 -38 -3 -42 -6 -64 -53 -33 -69 -45 -80
-125 -117 -61 -28 -73 -38 -88 -74 -13 -29 -37 -55 -79 -85 -90 -65 -129 -165
-117 -297 6 -54 3 -73 -19 -124 -31 -74 -40 -144 -25 -190 10 -29 8 -41 -9
-79 -24 -53 -25 -90 -4 -130 12 -25 14 -46 8 -107 -11 -100 -8 -125 24 -195
l26 -59 -12 -181 c-16 -233 -15 -306 2 -447 28 -223 82 -494 97 -485 9 6 19
-58 19 -128 0 -36 -4 -56 -10 -52 -5 3 -10 -1 -10 -9 0 -32 -19 -24 -44 19
-15 25 -40 52 -56 60 l-30 16 0 -31 c0 -17 4 -29 9 -25 5 3 12 -4 16 -15 3
-11 12 -20 19 -20 7 0 26 -14 43 -30 37 -36 38 -40 52 -380 15 -352 53 -503
187 -748 122 -221 309 -444 506 -603 266 -214 469 -289 778 -289 343 0 635 86
931 276 252 161 567 521 716 819 81 161 133 310 161 465 8 45 8 45 48 43 l39
-2 -31 11 -32 10 1 247 c0 257 -12 422 -39 506 -30 94 -33 126 -16 162 9 20
21 32 29 29 18 -7 17 82 -2 387 -29 454 -67 680 -139 832 -34 73 -118 174
-181 216 -40 27 -50 53 -65 157 -12 86 -20 103 -69 156 -134 146 -206 191
-382 241 -52 14 -123 41 -159 60 -93 47 -215 96 -365 145 -116 39 -143 44
-250 48 -87 3 -129 9 -155 22 -120 60 -278 77 -384 40 -61 -21 -83 -19 -211
15 -73 20 -147 26 -175 14z m1490 -860 c117 -18 313 -109 396 -182 132 -118
195 -244 279 -562 27 -99 61 -189 127 -335 19 -41 45 -102 57 -135 13 -33 27
-71 33 -85 18 -45 36 -104 44 -145 4 -22 8 -46 10 -54 1 -8 7 -17 13 -20 6 -4
7 -12 1 -21 -8 -13 -10 -12 -10 2 0 9 -4 19 -8 22 -5 3 -9 -39 -10 -92 -5
-251 -36 -484 -83 -631 -42 -133 -137 -289 -226 -372 -73 -68 -185 -140 -251
-159 -79 -24 -110 -31 -197 -45 -49 -8 -103 -17 -118 -21 -26 -6 -28 -5 -21
20 9 37 -29 90 -86 116 -110 51 -176 62 -376 67 l-191 5 28 31 c39 43 9 60
-41 23 -40 -29 -69 -38 -153 -48 -123 -14 -270 -5 -324 18 -48 22 -93 83 -93
126 0 15 -4 28 -10 28 -5 0 -10 -17 -10 -38 0 -50 47 -141 86 -167 l30 -21
-99 -23 c-249 -58 -406 -162 -395 -263 l3 -31 -90 2 c-165 4 -243 30 -329 111
-63 58 -87 98 -119 192 -37 110 -55 263 -62 513 -3 120 -8 236 -11 257 -5 25
-2 44 7 55 12 14 12 16 0 9 -11 -7 -13 0 -10 31 3 30 1 39 -8 36 -7 -3 -13 2
-13 12 0 9 4 14 9 11 9 -6 9 92 0 109 -3 6 -5 34 -5 62 1 29 -2 53 -6 53 -5 0
-8 24 -8 54 0 30 -5 67 -12 83 -6 15 -13 35 -16 43 -9 31 -4 429 8 510 19 138
51 249 97 342 35 70 59 101 119 157 107 100 170 128 336 152 73 10 194 23 268
29 74 5 185 16 245 24 61 8 144 17 185 21 103 9 241 32 325 55 258 68 522 95
685 69z m1017 -1421 c-3 -8 -6 -5 -6 6 -1 11 2 17 5 13 3 -3 4 -12 1 -19z
m-3260 -160 c-3 -7 -5 -2 -5 12 0 14 2 19 5 13 2 -7 2 -19 0 -25z m10 -125
c-3 -10 -5 -4 -5 12 0 17 2 24 5 18 2 -7 2 -21 0 -30z m2213 -1168 c0 -2 -9
-21 -20 -42 -10 -21 -33 -83 -50 -137 -36 -117 -55 -151 -118 -207 -112 -99
-221 -114 -325 -45 -58 39 -59 39 -130 31 -40 -4 -118 -10 -175 -14 l-102 -7
-49 -51 c-69 -72 -136 -82 -234 -34 -79 39 -132 95 -187 199 -29 53 -63 108
-76 123 -13 14 -24 30 -24 36 0 18 169 45 210 33 92 -27 343 -49 354 -31 4 5
27 13 52 17 36 5 47 3 57 -10 18 -24 114 -9 109 17 -2 14 5 17 35 16 21 0 32
-3 26 -6 -23 -9 -13 -20 13 -15 18 3 22 7 13 13 -19 11 -11 15 39 22 40 5 42
4 25 -10 -17 -14 -17 -14 2 -8 11 3 34 9 50 12 17 3 65 16 108 29 43 13 89 24
103 24 14 0 22 4 19 10 -4 6 5 10 19 10 14 0 26 4 26 9 0 5 8 12 18 14 23 6
212 8 212 2z m-451 -19 c-25 -25 -629 -79 -629 -56 0 13 41 20 127 20 45 0
131 7 190 15 156 21 324 32 312 21z"/>
<path d="M3545 3654 c-16 -2 -78 -11 -138 -20 -144 -20 -225 -46 -265 -85 -42
-41 -43 -78 -2 -112 58 -49 106 -47 295 13 224 72 344 84 487 50 101 -24 146
-26 155 -4 13 34 -81 98 -202 136 -59 18 -262 32 -330 22z"/>
<path d="M1950 3475 c-163 -22 -267 -72 -323 -153 -29 -41 -49 -96 -39 -106
13 -13 46 -4 85 23 95 64 100 66 257 66 80 0 182 -4 227 -9 127 -14 193 20
193 98 0 31 -50 76 -96 87 -54 12 -191 9 -304 -6z"/>
<path d="M3640 3053 c-189 -28 -349 -114 -400 -214 -21 -39 -12 -63 12 -32 18
25 87 83 97 83 5 0 12 -17 16 -37 3 -21 15 -57 25 -80 l19 -43 108 0 c112 0
223 18 271 44 15 8 49 20 75 27 37 9 51 18 59 38 10 26 6 111 -7 144 -6 14 -2
17 22 17 16 0 53 -7 83 -16 106 -29 107 -30 90 -9 -48 59 -311 103 -470 78z
m-60 -77 c0 -16 -37 -46 -55 -46 -6 0 -20 6 -30 14 -17 12 -15 14 26 29 56 20
59 20 59 3z"/>
<path d="M1860 2861 c-114 -31 -210 -92 -210 -132 0 -29 16 -30 46 -3 30 26
84 57 120 68 20 6 22 2 27 -52 2 -33 14 -80 25 -105 l20 -45 87 -7 c147 -13
275 8 296 46 5 10 14 19 20 19 6 0 7 -4 4 -10 -8 -13 45 -13 64 -1 9 6 16 32
19 69 l4 60 46 -19 46 -20 -19 22 c-24 26 -106 68 -195 99 -90 32 -303 38
-400 11z m200 -38 c0 -15 -35 -43 -54 -43 -27 0 -68 28 -61 41 7 10 115 13
115 2z"/>
<path d="M3130 2099 c0 -5 5 -7 10 -4 6 3 10 8 10 11 0 2 -4 4 -10 4 -5 0 -10
-5 -10 -11z"/>
<path d="M2790 1616 c0 -2 16 -6 35 -8 19 -2 35 0 35 4 0 4 -16 8 -35 8 -19 0
-35 -2 -35 -4z"/>
<path d="M2615 1465 c63 -52 243 -100 288 -76 21 11 22 11 1 7 -35 -6 -173 34
-257 74 -55 27 -68 25 -32 -5z"/>
<path d="M3110 1459 c0 -5 5 -7 10 -4 6 3 10 8 10 11 0 2 -4 4 -10 4 -5 0 -10
-5 -10 -11z"/>
<path d="M3015 1420 c-13 -5 -14 -9 -5 -9 8 0 24 4 35 9 13 5 14 9 5 9 -8 0
-24 -4 -35 -9z"/>
<path d="M4902 3032 c-35 -30 -82 -114 -82 -146 0 -16 4 -13 17 13 10 19 39
57 65 85 26 28 48 54 48 58 0 19 -20 15 -48 -10z"/>
</g>
</svg>
